# AST/ASF file generated using VICON BodyLanguage
# -----------------------------------------------
:version 1.10
:name VICON
:units
  mass 1.0
  length 0.45
  angle deg
:documentation
   .ast/.asf automatically generated from VICON data using
   VICON BodyBuilder and BodyLanguage model FoxedUp or BRILLIANT.MOD
:root
   order TX TY TZ RX RY RZ
   axis XYZ
   position 0 0 0  
   orientation 0 0 0 
:bonedata
  begin
     id 1 
     name lhipjoint
     direction 0.578396 -0.714046 0.394458 
     length 2.21935 
     axis 0 0 0  XYZ
  end
  begin
     id 2 
     name lfemur
     direction 0.34202 -0.939693 0  
     length 6.39105  
     axis 0 0 20  XYZ
    dof rx ry rz
    limits (-160.0 20.0)
           (-70.0 70.0)
           (-60.0 70.0)
  end
  begin
     id 3 
     name ltibia
     direction 0.34202 -0.939693 0   
     length 6.99037   
     axis 0 0 20   XYZ
    dof rx
    limits (-10.0 170.0)
  end
  begin
     id 4 
     name lfoot
     direction 0.0582372 -0.160005 0.985397   
     length 2.06111   
     axis -90 7.62852e-016 20   XYZ
    dof rx rz
    limits (-45.0 90.0)
           (-70.0 20.0)
  end
  begin
     id 5 
     name ltoes
     direction 1.53556e-011 -4.21875e-011 1   
     length 1.04074   
     axis -90 7.62852e-016 20   XYZ
    dof rx
    limits (-90.0 20.0)
  end
  begin
     id 6 
     name rhipjoint
     direction -0.558179 -0.726269 0.40121   
     length 2.182  
     axis 0 0 0  XYZ 
  end
  begin
     id 7 
     name rfemur
     direction -0.34202 -0.939693 0   
     length 6.51172   
     axis 0 0 -20   XYZ
    dof rx ry rz
    limits (-160.0 20.0)
           (-70.0 70.0)
           (-70.0 60.0)
  end
  begin
     id 8 
     name rtibia
     direction -0.34202 -0.939693 0   
     length 7.02607   
     axis 0 0 -20   XYZ
    dof rx
    limits (-10.0 170.0)
 end
 begin
     id 9 
     name rfoot
     direction -0.0788856 -0.216737 0.973038   
     length 1.96734  
     axis -90 -7.62852e-016 -20   XYZ
    dof rx rz
    limits (-45.0 90.0)
           (-20.0 70.0)
  end
  begin
     id 10 
     name rtoes
     direction -1.53567e-011 -4.21783e-011 1   
     length 0.990825   
     axis -90 -7.62852e-016 -20   XYZ
    dof rx
    limits (-90.0 20.0)
  end
  begin
     id 11 
     name lowerback
     direction 0.00668177 0.999323 -0.0361741   
     length 1.7655   
     axis 0 0 0   XYZ
    dof rx ry rz
    limits (-20.0 45.0)
           (-30.0 30.0)
           (-30.0 30.0)
  end
  begin
     id 12 
     name upperback
     direction -0.00222086 0.99851 0.0545167   
     length 1.74912   
     axis 0 0 0   XYZ
    dof rx ry rz
    limits (-20.0 45.0)
           (-30.0 30.0)
           (-30.0 30.0)
  end
  begin
     id 13 
     name thorax
     direction -0.00733971 0.997496 0.0703443   
     length 1.75715   
     axis 0 0 0   XYZ
    dof rx ry rz
    limits (-20.0 45.0)
           (-30.0 30.0)
           (-30.0 30.0)
  end
  begin
     id 14 
     name lowerneck
     direction 0.0279797 0.994795 0.0979765   
     length 1.46939   
     axis 0 0 0   XYZ
    dof rx ry rz
    limits (-20.0 45.0)
           (-30.0 30.0)
           (-30.0 30.0)
  end
  begin
     id 15 
     name upperneck
     direction 0.00339187 0.976776 -0.214238   
     length 1.48018   
     axis 0 0 0   XYZ
    dof rx ry rz
    limits (-20.0 45.0)
           (-30.0 30.0)
           (-30.0 30.0)
  end
  begin
     id 16
     name head
     direction -0.00263506 0.996603 -0.0823096  
     length 1.4976  
     axis 0 0 0   XYZ
    dof rx ry rz
    limits (-20.0 45.0)
           (-30.0 30.0)
           (-30.0 30.0)
  end
  begin
     id 17 
     name lclavicle
     direction 0.894044 0.44508 -0.0508781  
     length 3.03024  
     axis 0 0 0   XYZ
    dof ry rz
    limits (-20.0 10.0)
           (0.0 20.0)
  end
  begin
     id 18 
     name lhumerus
     direction 1 -4.48961e-011 -2.39475e-018   
     length 4.4661   
     axis 180 -30 -90   XYZ
    dof rx ry rz
    limits (-60.0 90.0)
           (-90.0 90.0)
           (-90.0 90.0)
  end
  begin
     id 19
     name lradius
     direction 1 -4.48961e-011 9.29328e-028   
     length 3.41414   
     axis 180 -30 -90   XYZ
    dof rx
    limits (-10.0 170.0)
  end
  begin
     id 20
     name lwrist
     direction 1 -4.48985e-011 1.53461e-026   
     length 1.70707   
     axis -1.09697e-014 90 90   XYZ
    dof ry
    limits (-180.0 0.0)
 end
  begin
     id 21 
     name lhand
     direction 1 -4.48966e-011 3.06923e-026   
     length 0.328298   
     axis -1.95843e-014 90 90   XYZ
    dof rx rz
    limits (-90.0 90.0)
           (-45.0 45.0)
  end
  begin
     id 22 
     name lfingers
     direction 1 -4.48893e-011 6.13845e-026   
     length 0.264682   
     axis -3.91686e-014 90 90   XYZ
    dof rx
    limits (0.0 90.0)
  end
  begin
     id 23
     name lthumb
     direction 0.707107 -6.34876e-011 0.707107   
     length 0.380032   
     axis -90 45 2.85299e-015   XYZ
    dof rx rz
    limits (-45.0 45.0)
           (-45.0 45.0)
  end
  begin
     id 24 
     name rclavicle
     direction -0.936955 0.347862 -0.0332887   
     length 3.26927  
     axis 0 0 0   XYZ 
    dof ry rz
    limits (-10.0 20.0)
           (-20.0 0.0)
  end
  begin
     id 25 
     name rhumerus
     direction -1 -4.4896e-011 1.78637e-018  
     length 4.40431   
     axis 180 30 90   XYZ
    dof rx ry rz
    limits (-90.0 60.0)
           (-90.0 90.0)
           (-90.0 90.0)
  end
  begin
     id 26 
     name rradius
     direction -1 -4.48955e-011 9.34036e-027   
     length 3.04688   
     axis 180 30 90   XYZ
    dof rx
    limits (-10.0 170.0)
  end
  begin
     id 27 
     name rwrist
     direction -1 -4.49011e-011 1.53461e-026   
     length 1.52344   
     axis -1.09697e-014 -90 -90   XYZ
    dof ry
    limits (-180.0 0.0)
  end
  begin
     id 28
     name rhand
     direction -1 -4.48834e-011 3.06923e-026   
     length 0.500489   
     axis -1.95843e-014 -90 -90   XYZ
    dof rx rz
    limits (-90.0 90.0)
           (-45.0 45.0)
  end
  begin
     id 29
     name rfingers
     direction -1 -4.48967e-011 6.13845e-026   
     length 0.403507   
     axis -3.91686e-014 -90 -90   XYZ
    dof rx
    limits (0.0 90.0)
  end
  begin
     id 30
     name rthumb
     direction -0.707107 -6.34826e-011 0.707107   
     length 0.579358   
     axis -90 -45 -2.85299e-015   XYZ
    dof rx rz
    limits (-45.0 45.0)
           (-45.0 45.0)
  end
:hierarchy
  begin
    root lhipjoint rhipjoint lowerback
    lhipjoint lfemur
    lfemur ltibia
    ltibia lfoot
    lfoot ltoes
    rhipjoint rfemur
    rfemur rtibia
    rtibia rfoot
    rfoot rtoes
    lowerback upperback
    upperback thorax
    thorax lowerneck lclavicle rclavicle
    lowerneck upperneck
    upperneck head
    lclavicle lhumerus
    lhumerus lradius
    lradius lwrist
    lwrist lhand lthumb
    lhand lfingers
    rclavicle rhumerus
    rhumerus rradius
    rradius rwrist
    rwrist rhand rthumb
    rhand rfingers
  end

#!OML:ASF H:\IndianDance\Patient Classification 1\Patient 1\Session 1\dancer.ASF
:FULLY-SPECIFIED
:DEGREES
788
root -28.475 14.3309 3.19552 -173.413 0.727364 -183.731
lowerback 5.80453 3.47838 -0.724125
upperback -6.56068 4.74281 -2.96032
thorax -10.0424 2.38244 -3.46442
lowerneck -17.1036 -5.27937 -4.30679
upperneck 27.3851 -8.45976 2.92373
head 12.1734 -4.31535 0.408424
rclavicle 2.06736e-014 3.02153e-014
rhumerus -3.06118 55.4011 -53.5694
rradius 94.7282
rwrist -34.5943
rhand -6.37795 12.3992
rfingers 7.12502
rthumb 19.469 -16.6461
lclavicle 2.06736e-014 3.02153e-014
lhumerus 4.88987 -43.5662 -1.65985
lradius 91.8663
lwrist 35.0616
lhand -12.1672 7.81925
lfingers 7.12502
lthumb 13.8959 -322.665
rfemur -46.2144 -31.2716 14.7207
rtibia 78.9843
rfoot -25.7727 -20.4484
rtoes 14.708
lfemur 152.19 153.179 153.823
ltibia 54.2151
lfoot -33.3149 -2.15353
ltoes -33.1798
789
root -28.5089 14.3195 3.19703 -173.501 0.507714 -183.386
lowerback 5.89974 3.47082 -0.602215
upperback -6.5273 4.74239 -2.80086
thorax -10.0654 2.37316 -3.36645
lowerneck -17.1549 -5.16856 -4.20706
upperneck 27.4055 -8.26918 2.7646
head 12.1704 -4.23662 0.362641
rclavicle 6.71644e-014 -1.09332e-014
rhumerus -4.02682 53.1258 -51.5497
rradius 91.5723
rwrist -35.2964
rhand -7.89963 12.323
rfingers 7.12502
rthumb 18.0054 -16.8636
lclavicle 6.71644e-014 -1.09332e-014
lhumerus 4.52222 -42.9309 -1.78181
lradius 86.446
lwrist 34.864
lhand -10.7868 8.05832
lfingers 7.12502
lthumb 15.2258 -322.522
rfemur -45.9659 -31.4731 14.6591
rtibia 79.2771
rfoot -25.4594 -20.0089
rtoes 14.5623
lfemur 152.055 153.203 154.048
ltibia 54.617
lfoot -33.3456 -2.12356
ltoes -32.7777
790
root -28.5419 14.3095 3.19659 -173.568 0.287118 -183.014
lowerback 5.94549 3.44291 -0.442225
upperback -6.48998 4.72047 -2.64465
thorax -10.0521 2.35191 -3.28548
lowerneck -17.1637 -5.0549 -4.09602
upperneck 27.3589 -8.08546 2.65011
head 12.1348 -4.15422 0.333
rclavicle -6.43565e-015 9.93923e-016
rhumerus -4.60544 50.9085 -49.4053
rradius 87.7136
rwrist -35.7251
rhand -9.30656 11.9706
rfingers 7.12502
rthumb 16.6513 -17.3351
lclavicle -6.43565e-015 9.93923e-016
lhumerus 4.2865 -42.3052 -1.906
lradius 80.6944
lwrist 33.8692
lhand -9.60309 8.16437
lfingers 7.12502
lthumb 16.3658 -322.506
rfemur -45.6392 -31.5765 14.6295
rtibia 79.1737
rfoot -25.1755 -19.6702
rtoes 14.5497
lfemur 151.927 153.341 154.297
ltibia 54.9889
lfoot -33.3714 -2.01925
ltoes -32.358
791
root -28.5735 14.3005 3.19459 -173.617 0.0732858 -182.646
lowerback 5.96319 3.79854 -0.240305
upperback -6.44132 4.57565 -2.53755
thorax -10.0071 2.00093 -3.21318
lowerneck -17.1402 -4.93318 -3.95875
upperneck 27.2712 -7.90906 2.57661
head 12.0782 -4.06787 0.314588
rclavicle 7.15625e-015 5.96354e-016
rhumerus -4.80816 48.7941 -47.2708
rradius 83.1248
rwrist -35.8382
rhand -10.672 11.3046
rfingers 7.12502
rthumb 15.3365 -18.1067
lclavicle 7.15625e-015 5.96354e-016
lhumerus 4.15081 -41.6651 -2.01066
lradius 74.6791
lwrist 32.114
lhand -8.66616 8.2193
lfingers 7.12502
lthumb 17.2678 -322.528
rfemur -45.2341 -31.5712 14.6103
rtibia 78.6306
rfoot -24.9117 -19.4248
rtoes 14.6256
lfemur 151.805 153.574 154.547
ltibia 55.3277
lfoot -33.3706 -1.87964
ltoes -31.9336
792
root -28.6033 14.2925 3.19134 -173.65 -0.116215 -182.307
lowerback 5.96004 3.71765 -0.120685
upperback -6.41465 4.49892 -2.41828
thorax -9.97869 1.96453 -3.14019
lowerneck -17.1044 -4.802 -3.79139
upperneck 27.1674 -7.74107 2.54259
head 12.0142 -3.97796 0.304786
rclavicle 2.20651e-014 -2.88238e-014
rhumerus -4.651 46.8046 -45.2303
rradius 77.845
rwrist -35.6408
rhand -12.0601 10.2663
rfingers 7.12502
rthumb 13.9991 -19.2423
lclavicle 2.20651e-014 -2.88238e-014
lhumerus 4.07507 -40.947 -2.0678
lradius 68.4996
lwrist 29.7728
lhand -7.97685 8.37342
lfingers 7.12502
lthumb 17.9311 -322.433
rfemur -44.7463 -31.4265 14.5813
rtibia 77.6192
rfoot -24.6858 -19.3104
rtoes 14.7056
lfemur 151.681 153.862 154.772
ltibia 55.6464
lfoot -33.3403 -1.73244
ltoes -31.5162
793
root -28.6317 14.2882 3.18709 -173.666 -0.272874 -182.004
lowerback 5.94594 3.62639 -0.0557248
upperback -6.39265 4.39792 -2.31989
thorax -9.95288 1.91829 -3.05523
lowerneck -17.0801 -4.66299 -3.58684
upperneck 27.0661 -7.58182 2.53274
head 11.954 -3.88542 0.295608
rclavicle -4.14963e-015 -5.56597e-015
rhumerus -4.14134 44.924 -43.342
rradius 71.9294
rwrist -35.13
rhand -13.5606 8.73194
rfingers 7.12502
rthumb 12.5528 -20.871
lclavicle -4.14963e-015 -5.56597e-015
lhumerus 3.99957 -40.0513 -2.02626
lradius 62.2863
lwrist 27.1242
lhand -7.50223 8.81832
lfingers 7.12502
lthumb 18.3877 -322.031
rfemur -44.1634 -31.1323 14.5431
rtibia 76.1126
rfoot -24.5062 -19.3478
rtoes 14.7083
lfemur 151.553 154.178 154.962
ltibia 55.9436
lfoot -33.2752 -1.58912
ltoes -31.1092
794
root -28.6571 14.2822 3.18238 -173.671 -0.376593 -181.738
lowerback 5.93414 3.53376 -0.0765632
upperback -6.37388 4.28315 -2.23091
thorax -9.93851 1.87013 -2.93121
lowerneck -17.0856 -4.5163 -3.34917
upperneck 26.9797 -7.4258 2.53297
head 11.9054 -3.78951 0.282724
rclavicle 3.54582e-014 -4.09496e-014
rhumerus -3.32184 43.0477 -41.6738
rradius 65.4061
rwrist -34.1765
rhand -14.9986 6.84805
rfingers 7.12502
rthumb 11.1661 -22.8348
lclavicle 3.54582e-014 -4.09496e-014
lhumerus 3.85998 -38.8528 -1.83829
lradius 56.1788
lwrist 24.466
lhand -7.1257 9.62755
lfingers 7.12502
lthumb 18.7499 -321.256
rfemur -43.5135 -30.6613 14.4975
rtibia 74.1676
rfoot -24.3617 -19.5782
rtoes 14.4653
lfemur 151.409 154.47 155.122
ltibia 56.2387
lfoot -33.1793 -1.50906
ltoes -30.6283
795
root -28.68 14.2748 3.17746 -173.664 -0.418529 -181.5
lowerback 5.93004 3.44655 -0.175532
upperback -6.35543 4.16614 -2.14405
thorax -9.93451 1.82582 -2.76643
lowerneck -17.1352 -4.36516 -3.09046
upperneck 26.9066 -7.27075 2.53957
head 11.8708 -3.69001 0.266928
rclavicle 2.86001e-014 1.90833e-014
rhumerus -2.24791 41.0068 -40.2861
rradius 58.3566
rwrist -32.7858
rhand -16.2522 4.64885
rfingers 7.12502
rthumb 9.95687 -25.0957
lclavicle 2.86001e-014 1.90833e-014
lhumerus 3.61682 -37.2072 -1.48213
lradius 50.3063
lwrist 22.0293
lhand -6.78569 10.7841
lfingers 7.12502
lthumb 19.0769 -320.131
rfemur -42.8061 -30.0105 14.4442
rtibia 71.8724
rfoot -24.0691 -19.9655
rtoes 13.5847
lfemur 151.246 154.712 155.254
ltibia 56.5366
lfoot -33.0734 -1.43511
ltoes -30.1544
796
root -28.7014 14.2703 3.17248 -173.642 -0.395629 -181.278
lowerback 5.9364 3.36995 -0.330183
upperback -6.33415 4.05708 -2.05879
thorax -9.93663 1.78909 -2.57416
lowerneck -17.2347 -4.21204 -2.81861
upperneck 26.8316 -7.11586 2.55719
head 11.8462 -3.58581 0.25172
rclavicle -8.62228e-015 8.74653e-015
rhumerus -1.02062 38.5605 -39.2303
rradius 50.9606
rwrist -30.9156
rhand -17.1965 2.24841
rfingers 7.12502
rthumb 9.04573 -27.5376
lclavicle -8.62228e-015 8.74653e-015
lhumerus 3.27114 -34.986 -0.994228
lradius 44.7854
lwrist 19.9097
lhand -6.49993 12.1798
lfingers 7.12502
lthumb 19.3517 -318.763
rfemur -42.0526 -29.2277 14.3974
rtibia 69.404
rfoot -23.5817 -20.3127
rtoes 12.3848
lfemur 151.072 154.898 155.363
ltibia 56.8328
lfoot -32.9758 -1.36415
ltoes -29.6519
797
root -28.7214 14.2636 3.16813 -173.604 -0.305149 -181.058
lowerback 5.95581 3.31238 -0.514658
upperback -6.30966 3.97063 -1.97356
thorax -9.94364 1.76549 -2.36928
lowerneck -17.3713 -4.067 -2.55975
upperneck 26.729 -6.97043 2.60558
head 11.8211 -3.48082 0.248218
rclavicle -3.42904e-015 2.18663e-014
rhumerus 0.23072 35.3553 -38.5581
rradius 43.4248
rwrist -28.4048
rhand -17.7654 -0.0752094
rfingers 7.12502
rthumb 8.49678 -29.8843
lclavicle -3.42904e-015 2.18663e-014
lhumerus 2.84523 -32.0478 -0.412009
lradius 39.6905
lwrist 18.0129
lhand -6.31435 13.6385
lfingers 7.12502
lthumb 19.5301 -317.322
rfemur -41.3405 -28.3879 14.3884
rtibia 67.0275
rfoot -23.0551 -20.5072
rtoes 11.0759
lfemur 150.869 155.032 155.46
ltibia 57.146
lfoot -32.8972 -1.26283
ltoes -29.1717
798
root -28.7406 14.2544 3.16486 -173.546 -0.153899 -180.834
lowerback 5.99155 3.27791 -0.703467
upperback -6.28004 3.91472 -1.8945
thorax -9.95311 1.75694 -2.17374
lowerneck -17.5467 -3.93428 -2.32295
upperneck 26.5856 -6.83721 2.69093
head 11.7914 -3.37586 0.260092
rclavicle -1.44864e-014 4.77083e-015
rhumerus 1.38409 30.8995 -38.3037
rradius 36.0445
rwrist -24.9334
rhand -17.9758 -2.12037
rfingers 7.12502
rthumb 8.29373 -31.9376
lclavicle -1.44864e-014 4.77083e-015
lhumerus 2.37372 -28.3246 0.178356
lradius 35.1401
lwrist 16.1233
lhand -6.26352 15.0195
lfingers 7.12502
lthumb 19.579 -315.946
rfemur -40.7475 -27.5702 14.4425
rtibia 65.0082
rfoot -22.6299 -20.4143
rtoes 9.7256
lfemur 150.632 155.135 155.55
ltibia 57.4785
lfoot -32.8411 -1.1207
ltoes -28.7323
